<svg width="555" height="200" viewBox="0 0 555 200" fill="none" xmlns="http://www.w3.org/2000/svg">
<path d="M40.0611 168.254C151.723 181.363 185.6 135.017 195.724 109.39C195.752 109.132 195.786 108.875 195.81 108.614C191.034 115.01 185.073 120.664 179.29 125.424C146.053 152.814 96.7101 158.42 55.0604 151.417C36.2915 148.261 18.5703 141.488 3.1156 131.237C16.7592 169.492 53.5916 196.902 96.895 196.902C131.156 196.902 161.36 179.746 179.242 153.647C112.569 200.692 40.0611 168.254 40.0611 168.254Z" fill="#257683"/>
<path d="M170.871 44.5119C175.37 46.5525 180.084 49.0034 184.535 51.9017C167.759 21.0034 134.809 0 96.8945 0C50.77 0 11.9826 31.0983 0.745884 73.2746C-0.737373 78.8606 0.0118949 84.7979 2.83778 89.8509C26.9169 133.088 88.8658 134.851 130.694 120.319C136.29 118.385 141.726 116.023 146.953 113.254C159.782 106.414 169.923 93.8271 163.226 79.1119C156.361 64.0373 138.534 55.5186 123.346 51.3288C99.8423 44.8407 74.4177 46.7458 51.4513 54.4407C48.4145 55.4576 43.7137 56.6339 39.6121 58.2407C40.5536 59.3593 41.5293 60.0475 41.5293 60.0475C43.4817 61.6417 45.859 62.6414 48.3734 62.9254L55.3955 63.7153L41.2794 65.8475L27.1634 67.9797L32.3572 54.8102L37.5544 41.6373L36.7943 48.5966C36.4965 51.3424 37.0888 53.9729 38.3316 56.2237C38.448 56.4983 38.5884 56.7593 38.7356 57.0102C54.8922 44.1932 103.3 13.9119 170.871 44.5119Z" fill="#38BBBA"/>
<path d="M222.192 29.528H227.952L241.968 71H237.424L233.136 58.136H217.008L212.72 71H208.176L222.192 29.528ZM218.16 54.552H232.048L225.264 33.048H225.072L218.16 54.552ZM261.405 38.936C266.354 38.936 269.661 40.4933 271.325 43.608C272.136 45.144 272.69 46.7867 272.989 48.536C273.288 50.2427 273.437 52.4613 273.437 55.192C273.437 57.88 273.074 60.3333 272.349 62.552C271.624 64.728 270.77 66.3707 269.789 67.48C268.808 68.5893 267.677 69.4853 266.397 70.168C264.562 71.1493 262.792 71.64 261.085 71.64C259.421 71.64 256.818 70.8933 253.277 69.4V83.864H249.309V47.64L248.221 39.896H250.845L251.037 40.088L252.189 43.352C254.962 40.408 258.034 38.936 261.405 38.936ZM253.277 66.648C255.581 67.4587 257.821 67.864 259.997 67.864C262.216 67.864 263.858 67.608 264.925 67.096C266.034 66.5413 266.845 65.944 267.357 65.304C267.912 64.6213 268.317 63.6187 268.573 62.296C268.872 60.9733 269.021 59.928 269.021 59.16C269.064 58.392 269.085 57.0907 269.085 55.256C269.085 53.3787 269.042 51.8853 268.957 50.776C268.914 49.624 268.765 48.4507 268.509 47.256C268.296 46.0187 267.933 45.144 267.421 44.632C266.141 43.352 264.242 42.712 261.725 42.712C258.141 42.712 255.325 43.8853 253.277 46.232V66.648ZM294.218 38.936C299.167 38.936 302.474 40.4933 304.138 43.608C304.948 45.144 305.503 46.7867 305.802 48.536C306.1 50.2427 306.25 52.4613 306.25 55.192C306.25 57.88 305.887 60.3333 305.162 62.552C304.436 64.728 303.583 66.3707 302.602 67.48C301.62 68.5893 300.49 69.4853 299.21 70.168C297.375 71.1493 295.604 71.64 293.898 71.64C292.234 71.64 289.631 70.8933 286.09 69.4V83.864H282.122V47.64L281.034 39.896H283.658L283.85 40.088L285.002 43.352C287.775 40.408 290.847 38.936 294.218 38.936ZM286.09 66.648C288.394 67.4587 290.634 67.864 292.81 67.864C295.028 67.864 296.671 67.608 297.738 67.096C298.847 66.5413 299.658 65.944 300.17 65.304C300.724 64.6213 301.13 63.6187 301.386 62.296C301.684 60.9733 301.834 59.928 301.834 59.16C301.876 58.392 301.898 57.0907 301.898 55.256C301.898 53.3787 301.855 51.8853 301.77 50.776C301.727 49.624 301.578 48.4507 301.322 47.256C301.108 46.0187 300.746 45.144 300.234 44.632C298.954 43.352 297.055 42.712 294.538 42.712C290.954 42.712 288.138 43.8853 286.09 46.232V66.648ZM332.171 39.448H336.651L348.491 66.456L348.811 60.76L351.499 29.528H355.915L351.435 71H346.251L334.475 44.312L322.955 71H317.451L313.035 29.528H317.451L320.267 60.696L320.587 66.52L332.171 39.448ZM387.16 50.456C387.16 51.992 387.032 53.592 386.776 55.256H366.68C366.851 59.9493 367.64 63.192 369.048 64.984C370.456 66.7333 372.952 67.608 376.536 67.608C379.224 67.608 382.36 67.032 385.944 65.88L386.328 69.08C385.347 69.464 384.579 69.7413 384.024 69.912C383.512 70.04 382.957 70.2107 382.36 70.424C381.763 70.5947 381.315 70.7227 381.016 70.808C380.717 70.8933 380.291 71 379.736 71.128C379.181 71.256 378.712 71.3413 378.328 71.384C377.176 71.512 376.195 71.576 375.384 71.576C371.373 71.576 368.216 70.168 365.912 67.352C363.608 64.536 362.456 60.6107 362.456 55.576C362.456 52.8027 362.797 50.3707 363.48 48.28C364.163 46.1467 364.973 44.5253 365.912 43.416C366.851 42.264 367.981 41.3467 369.304 40.664C371.267 39.5973 373.4 39.0213 375.704 38.936C383.341 38.9787 387.16 42.8187 387.16 50.456ZM383.128 49.432C383.128 46.872 382.488 45.08 381.208 44.056C379.928 43.032 378.029 42.52 375.512 42.52C372.995 42.52 370.925 43.2027 369.304 44.568C367.683 45.8907 366.851 48.3653 366.808 51.992H382.936C383.064 51.0107 383.128 50.1573 383.128 49.432ZM408.612 39C409.465 39 410.404 39.128 411.428 39.384L409.892 43.16C409.209 43.032 408.527 42.968 407.844 42.968C405.156 42.968 402.425 44.4613 399.652 47.448V71H395.684V47.704L394.596 39.896H397.028L397.22 40.024L398.436 44.568C400.313 42.7333 402.02 41.3467 403.556 40.408C405.092 39.4693 406.777 39 408.612 39ZM421.273 71H417.305V23.896H421.273V52.312L432.409 39.512H437.209L426.265 52.056L442.841 71H437.721L423.705 54.936L421.273 57.752V71Z" fill="#38BBBA"/>
<path d="M221.642 131L212.531 106.99H212.383C212.432 107.497 212.476 108.116 212.513 108.846C212.55 109.576 212.581 110.373 212.605 111.239C212.63 112.093 212.643 112.965 212.643 113.855V131H209.711V103.873H214.387L222.978 126.436H223.107L231.828 103.873H236.467V131H233.35V113.633C233.35 112.829 233.362 112.025 233.387 111.221C233.411 110.404 233.442 109.637 233.479 108.92C233.517 108.19 233.554 107.559 233.591 107.027H233.442L224.221 131H221.642ZM251.032 110.33C253.457 110.33 255.257 110.874 256.432 111.963C257.607 113.051 258.194 114.789 258.194 117.177V131H255.949L255.355 127.994H255.207C254.638 128.736 254.044 129.361 253.426 129.868C252.807 130.363 252.09 130.74 251.273 131C250.469 131.247 249.48 131.371 248.305 131.371C247.068 131.371 245.967 131.155 245.002 130.722C244.049 130.289 243.295 129.633 242.738 128.755C242.194 127.877 241.922 126.763 241.922 125.415C241.922 123.386 242.726 121.828 244.334 120.739C245.942 119.651 248.391 119.057 251.682 118.958L255.188 118.81V117.566C255.188 115.81 254.811 114.579 254.057 113.874C253.302 113.169 252.238 112.816 250.865 112.816C249.801 112.816 248.787 112.971 247.822 113.28C246.857 113.59 245.942 113.954 245.076 114.375L244.13 112.037C245.045 111.567 246.097 111.165 247.284 110.831C248.472 110.497 249.721 110.33 251.032 110.33ZM255.151 120.98L252.053 121.11C249.517 121.209 247.729 121.624 246.69 122.354C245.651 123.083 245.132 124.116 245.132 125.452C245.132 126.615 245.484 127.475 246.189 128.031C246.895 128.588 247.828 128.866 248.991 128.866C250.797 128.866 252.275 128.365 253.426 127.363C254.576 126.361 255.151 124.858 255.151 122.854V120.98ZM280.775 107.473C280.775 108.351 280.596 109.105 280.237 109.736C279.879 110.367 279.433 110.924 278.901 111.406C278.382 111.889 277.856 112.334 277.324 112.742C276.805 113.15 276.366 113.559 276.007 113.967C275.648 114.363 275.469 114.808 275.469 115.303C275.469 115.686 275.555 116.026 275.729 116.323C275.914 116.62 276.248 116.96 276.73 117.344C277.225 117.715 277.93 118.203 278.846 118.81C279.736 119.403 280.509 120.003 281.165 120.609C281.821 121.215 282.322 121.89 282.668 122.632C283.027 123.362 283.206 124.24 283.206 125.267C283.206 126.652 282.915 127.796 282.334 128.699C281.753 129.602 280.936 130.276 279.885 130.722C278.846 131.155 277.627 131.371 276.229 131.371C275.03 131.371 273.984 131.26 273.094 131.037C272.203 130.827 271.424 130.524 270.756 130.128V127.326C271.214 127.586 271.727 127.833 272.296 128.068C272.877 128.303 273.496 128.495 274.151 128.644C274.807 128.792 275.469 128.866 276.137 128.866C277.572 128.866 278.604 128.563 279.235 127.957C279.879 127.339 280.2 126.51 280.2 125.471C280.2 124.815 280.083 124.246 279.848 123.764C279.625 123.281 279.248 122.811 278.716 122.354C278.196 121.883 277.497 121.364 276.619 120.795C275.592 120.127 274.776 119.521 274.17 118.977C273.564 118.432 273.131 117.888 272.871 117.344C272.611 116.787 272.481 116.162 272.481 115.47C272.481 114.666 272.655 113.992 273.001 113.447C273.347 112.891 273.78 112.402 274.3 111.981C274.819 111.561 275.333 111.153 275.84 110.757C276.359 110.361 276.792 109.922 277.139 109.439C277.485 108.945 277.658 108.351 277.658 107.658C277.658 106.57 277.207 105.772 276.304 105.265C275.413 104.757 274.257 104.504 272.834 104.504C271.882 104.504 271.009 104.64 270.218 104.912C269.426 105.172 268.795 105.623 268.325 106.267C267.855 106.897 267.62 107.776 267.62 108.901V131H264.54V108.901C264.54 107.207 264.899 105.852 265.616 104.838C266.334 103.811 267.317 103.069 268.566 102.611C269.816 102.154 271.238 101.925 272.834 101.925C274.43 101.925 275.821 102.135 277.009 102.556C278.196 102.964 279.118 103.582 279.773 104.411C280.441 105.228 280.775 106.248 280.775 107.473ZM293.894 140.129C291.222 140.129 289.162 139.628 287.715 138.626C286.268 137.636 285.544 136.245 285.544 134.451C285.544 133.177 285.946 132.089 286.75 131.186C287.566 130.283 288.692 129.683 290.127 129.386C289.595 129.138 289.137 128.767 288.754 128.272C288.383 127.778 288.197 127.209 288.197 126.565C288.197 125.823 288.401 125.174 288.81 124.617C289.23 124.048 289.867 123.504 290.721 122.984C289.657 122.551 288.791 121.822 288.123 120.795C287.467 119.756 287.14 118.55 287.14 117.177C287.14 115.717 287.443 114.474 288.049 113.447C288.655 112.408 289.533 111.617 290.684 111.072C291.834 110.528 293.226 110.256 294.858 110.256C295.217 110.256 295.576 110.274 295.935 110.312C296.306 110.336 296.658 110.38 296.992 110.441C297.326 110.491 297.617 110.553 297.864 110.627H304.841V112.612L301.093 113.076C301.464 113.559 301.773 114.14 302.021 114.82C302.268 115.501 302.392 116.255 302.392 117.084C302.392 119.113 301.705 120.727 300.332 121.927C298.959 123.114 297.073 123.708 294.673 123.708C294.104 123.708 293.522 123.659 292.929 123.56C292.323 123.894 291.859 124.265 291.537 124.673C291.228 125.081 291.073 125.551 291.073 126.083C291.073 126.479 291.191 126.794 291.426 127.029C291.673 127.264 292.026 127.438 292.483 127.549C292.941 127.648 293.492 127.697 294.135 127.697H297.716C299.93 127.697 301.625 128.161 302.8 129.089C303.987 130.017 304.581 131.371 304.581 133.152C304.581 135.404 303.666 137.129 301.835 138.329C300.004 139.529 297.357 140.129 293.894 140.129ZM293.986 137.717C295.669 137.717 297.06 137.544 298.161 137.197C299.274 136.863 300.103 136.375 300.647 135.731C301.204 135.101 301.482 134.346 301.482 133.468C301.482 132.651 301.297 132.033 300.926 131.612C300.555 131.204 300.01 130.932 299.293 130.796C298.576 130.647 297.697 130.573 296.658 130.573H293.133C292.217 130.573 291.42 130.715 290.739 131C290.059 131.285 289.533 131.705 289.162 132.262C288.803 132.818 288.624 133.511 288.624 134.34C288.624 135.441 289.088 136.276 290.016 136.845C290.943 137.426 292.267 137.717 293.986 137.717ZM294.784 121.463C296.256 121.463 297.363 121.092 298.105 120.35C298.848 119.607 299.219 118.525 299.219 117.103C299.219 115.581 298.841 114.443 298.087 113.688C297.332 112.922 296.219 112.538 294.747 112.538C293.337 112.538 292.248 112.934 291.481 113.726C290.727 114.505 290.35 115.649 290.35 117.158C290.35 118.544 290.733 119.607 291.5 120.35C292.267 121.092 293.362 121.463 294.784 121.463ZM316.679 110.293C318.41 110.293 319.895 110.676 321.132 111.443C322.369 112.21 323.315 113.286 323.971 114.672C324.626 116.045 324.954 117.653 324.954 119.496V121.407H310.908C310.945 123.795 311.539 125.613 312.689 126.862C313.84 128.112 315.46 128.736 317.551 128.736C318.837 128.736 319.975 128.619 320.965 128.384C321.954 128.149 322.981 127.802 324.045 127.345V130.054C323.018 130.511 321.998 130.845 320.983 131.056C319.981 131.266 318.794 131.371 317.421 131.371C315.466 131.371 313.759 130.975 312.3 130.184C310.853 129.38 309.727 128.204 308.923 126.658C308.119 125.112 307.717 123.219 307.717 120.98C307.717 118.791 308.082 116.898 308.812 115.303C309.554 113.695 310.593 112.458 311.929 111.592C313.277 110.726 314.86 110.293 316.679 110.293ZM316.642 112.816C314.996 112.816 313.685 113.354 312.708 114.431C311.731 115.507 311.149 117.01 310.964 118.939H321.726C321.713 117.727 321.521 116.663 321.15 115.748C320.792 114.82 320.241 114.103 319.499 113.596C318.757 113.076 317.804 112.816 316.642 112.816ZM343.342 125.434C343.342 126.732 343.014 127.827 342.358 128.718C341.715 129.596 340.787 130.258 339.575 130.703C338.375 131.148 336.94 131.371 335.271 131.371C333.848 131.371 332.617 131.26 331.578 131.037C330.539 130.814 329.63 130.499 328.851 130.091V127.252C329.679 127.66 330.669 128.031 331.819 128.365C332.97 128.699 334.145 128.866 335.345 128.866C337.101 128.866 338.375 128.582 339.167 128.013C339.959 127.444 340.354 126.671 340.354 125.693C340.354 125.137 340.194 124.648 339.872 124.228C339.563 123.795 339.037 123.38 338.295 122.984C337.553 122.576 336.526 122.131 335.215 121.648C333.916 121.154 332.79 120.665 331.838 120.183C330.898 119.688 330.168 119.088 329.648 118.383C329.141 117.678 328.888 116.762 328.888 115.637C328.888 113.917 329.58 112.6 330.966 111.685C332.364 110.757 334.194 110.293 336.458 110.293C337.683 110.293 338.827 110.417 339.891 110.664C340.967 110.899 341.969 111.221 342.896 111.629L341.857 114.097C341.016 113.738 340.119 113.435 339.167 113.188C338.215 112.94 337.243 112.816 336.254 112.816C334.831 112.816 333.737 113.051 332.97 113.521C332.215 113.992 331.838 114.635 331.838 115.451C331.838 116.082 332.011 116.602 332.357 117.01C332.716 117.418 333.285 117.801 334.064 118.16C334.844 118.519 335.87 118.939 337.145 119.422C338.419 119.892 339.52 120.381 340.447 120.888C341.375 121.382 342.086 121.989 342.581 122.706C343.088 123.411 343.342 124.32 343.342 125.434ZM356.441 131.371C354.611 131.371 352.996 130.994 351.599 130.239C350.201 129.485 349.112 128.334 348.333 126.788C347.554 125.242 347.164 123.294 347.164 120.943C347.164 118.482 347.572 116.472 348.389 114.913C349.217 113.342 350.355 112.179 351.803 111.425C353.25 110.67 354.895 110.293 356.738 110.293C357.753 110.293 358.73 110.398 359.67 110.608C360.622 110.806 361.402 111.06 362.008 111.369L361.08 113.948C360.462 113.701 359.744 113.478 358.928 113.28C358.124 113.082 357.369 112.983 356.664 112.983C355.254 112.983 354.079 113.286 353.139 113.893C352.211 114.499 351.512 115.389 351.042 116.564C350.584 117.74 350.355 119.187 350.355 120.906C350.355 122.551 350.578 123.955 351.023 125.118C351.481 126.281 352.155 127.172 353.046 127.79C353.949 128.396 355.075 128.699 356.423 128.699C357.499 128.699 358.47 128.588 359.336 128.365C360.202 128.13 360.987 127.858 361.692 127.549V130.295C361.012 130.641 360.251 130.907 359.41 131.093C358.581 131.278 357.592 131.371 356.441 131.371ZM369.597 102.129V110.757C369.597 111.252 369.584 111.753 369.56 112.26C369.535 112.755 369.492 113.212 369.43 113.633H369.634C370.054 112.915 370.586 112.315 371.229 111.833C371.885 111.338 372.627 110.967 373.456 110.72C374.285 110.46 375.163 110.33 376.091 110.33C377.724 110.33 379.084 110.59 380.173 111.109C381.274 111.629 382.096 112.433 382.641 113.521C383.197 114.61 383.476 116.02 383.476 117.752V131H380.433V117.956C380.433 116.261 380.043 114.993 379.264 114.152C378.497 113.311 377.315 112.891 375.72 112.891C374.211 112.891 373.005 113.181 372.102 113.763C371.211 114.332 370.568 115.173 370.172 116.286C369.788 117.399 369.597 118.76 369.597 120.368V131H366.517V102.129H369.597ZM399.451 110.293C401.863 110.293 403.688 110.887 404.925 112.074C406.162 113.249 406.78 115.142 406.78 117.752V131H403.737V117.956C403.737 116.261 403.348 114.993 402.568 114.152C401.801 113.311 400.62 112.891 399.024 112.891C396.773 112.891 395.19 113.528 394.274 114.802C393.359 116.076 392.901 117.925 392.901 120.35V131H389.821V110.664H392.308L392.771 113.596H392.938C393.371 112.878 393.922 112.278 394.59 111.796C395.258 111.301 396.006 110.93 396.835 110.683C397.664 110.423 398.536 110.293 399.451 110.293ZM420.956 110.293C422.688 110.293 424.172 110.676 425.409 111.443C426.646 112.21 427.592 113.286 428.248 114.672C428.904 116.045 429.231 117.653 429.231 119.496V121.407H415.186C415.223 123.795 415.816 125.613 416.967 126.862C418.117 128.112 419.738 128.736 421.828 128.736C423.115 128.736 424.253 128.619 425.242 128.384C426.232 128.149 427.258 127.802 428.322 127.345V130.054C427.296 130.511 426.275 130.845 425.261 131.056C424.259 131.266 423.071 131.371 421.698 131.371C419.744 131.371 418.037 130.975 416.577 130.184C415.13 129.38 414.004 128.204 413.2 126.658C412.396 125.112 411.994 123.219 411.994 120.98C411.994 118.791 412.359 116.898 413.089 115.303C413.831 113.695 414.87 112.458 416.206 111.592C417.554 110.726 419.138 110.293 420.956 110.293ZM420.919 112.816C419.274 112.816 417.963 113.354 416.985 114.431C416.008 115.507 415.427 117.01 415.241 118.939H426.003C425.991 117.727 425.799 116.663 425.428 115.748C425.069 114.82 424.519 114.103 423.776 113.596C423.034 113.076 422.082 112.816 420.919 112.816ZM437.544 110.664V131H434.464V110.664H437.544ZM436.041 103.057C436.548 103.057 436.981 103.224 437.34 103.558C437.711 103.879 437.896 104.386 437.896 105.079C437.896 105.759 437.711 106.267 437.34 106.601C436.981 106.935 436.548 107.102 436.041 107.102C435.509 107.102 435.064 106.935 434.705 106.601C434.359 106.267 434.186 105.759 434.186 105.079C434.186 104.386 434.359 103.879 434.705 103.558C435.064 103.224 435.509 103.057 436.041 103.057ZM451.312 131.371C448.739 131.371 446.698 130.493 445.188 128.736C443.692 126.98 442.943 124.37 442.943 120.906C442.943 117.406 443.71 114.765 445.244 112.983C446.778 111.19 448.819 110.293 451.367 110.293C452.443 110.293 453.383 110.435 454.188 110.72C454.992 111.004 455.684 111.388 456.266 111.87C456.847 112.34 457.336 112.878 457.731 113.484H457.954C457.905 113.101 457.855 112.575 457.806 111.907C457.756 111.239 457.731 110.695 457.731 110.274V102.129H460.812V131H458.325L457.861 128.105H457.731C457.348 128.712 456.859 129.262 456.266 129.757C455.684 130.252 454.985 130.647 454.169 130.944C453.365 131.229 452.412 131.371 451.312 131.371ZM451.794 128.811C453.971 128.811 455.511 128.192 456.414 126.955C457.317 125.718 457.769 123.881 457.769 121.444V120.888C457.769 118.302 457.336 116.317 456.47 114.932C455.616 113.546 454.058 112.854 451.794 112.854C449.901 112.854 448.485 113.583 447.545 115.043C446.605 116.49 446.135 118.469 446.135 120.98C446.135 123.479 446.599 125.409 447.526 126.77C448.466 128.13 449.889 128.811 451.794 128.811ZM475.173 110.293C476.905 110.293 478.389 110.676 479.626 111.443C480.863 112.21 481.809 113.286 482.465 114.672C483.12 116.045 483.448 117.653 483.448 119.496V121.407H469.402C469.439 123.795 470.033 125.613 471.184 126.862C472.334 128.112 473.954 128.736 476.045 128.736C477.331 128.736 478.469 128.619 479.459 128.384C480.449 128.149 481.475 127.802 482.539 127.345V130.054C481.512 130.511 480.492 130.845 479.478 131.056C478.476 131.266 477.288 131.371 475.915 131.371C473.961 131.371 472.254 130.975 470.794 130.184C469.347 129.38 468.221 128.204 467.417 126.658C466.613 125.112 466.211 123.219 466.211 120.98C466.211 118.791 466.576 116.898 467.306 115.303C468.048 113.695 469.087 112.458 470.423 111.592C471.771 110.726 473.354 110.293 475.173 110.293ZM475.136 112.816C473.491 112.816 472.179 113.354 471.202 114.431C470.225 115.507 469.644 117.01 469.458 118.939H480.22C480.207 117.727 480.016 116.663 479.645 115.748C479.286 114.82 478.735 114.103 477.993 113.596C477.251 113.076 476.299 112.816 475.136 112.816ZM497.921 110.293C498.329 110.293 498.756 110.318 499.201 110.367C499.646 110.404 500.042 110.46 500.389 110.534L499.999 113.392C499.665 113.305 499.294 113.237 498.886 113.188C498.478 113.138 498.094 113.113 497.735 113.113C496.919 113.113 496.146 113.28 495.416 113.614C494.699 113.936 494.068 114.406 493.523 115.024C492.979 115.631 492.552 116.367 492.243 117.232C491.934 118.086 491.779 119.038 491.779 120.09V131H488.681V110.664H491.241L491.575 114.412H491.705C492.126 113.658 492.633 112.971 493.227 112.353C493.82 111.722 494.507 111.221 495.286 110.85C496.078 110.479 496.956 110.293 497.921 110.293ZM510.798 128.848C511.305 128.848 511.825 128.804 512.356 128.718C512.888 128.631 513.321 128.526 513.655 128.402V130.796C513.297 130.957 512.796 131.093 512.152 131.204C511.521 131.315 510.903 131.371 510.297 131.371C509.221 131.371 508.243 131.186 507.365 130.814C506.487 130.431 505.782 129.788 505.25 128.885C504.73 127.982 504.471 126.732 504.471 125.137V113.076H501.576V111.573L504.489 110.367L505.714 105.951H507.569V110.664H513.525V113.076H507.569V125.044C507.569 126.318 507.86 127.271 508.441 127.901C509.035 128.532 509.821 128.848 510.798 128.848ZM525.604 110.293C527.336 110.293 528.821 110.676 530.058 111.443C531.295 112.21 532.241 113.286 532.896 114.672C533.552 116.045 533.88 117.653 533.88 119.496V121.407H519.834C519.871 123.795 520.465 125.613 521.615 126.862C522.766 128.112 524.386 128.736 526.477 128.736C527.763 128.736 528.901 128.619 529.891 128.384C530.88 128.149 531.907 127.802 532.971 127.345V130.054C531.944 130.511 530.924 130.845 529.909 131.056C528.907 131.266 527.72 131.371 526.347 131.371C524.392 131.371 522.685 130.975 521.226 130.184C519.778 129.38 518.653 128.204 517.849 126.658C517.045 125.112 516.643 123.219 516.643 120.98C516.643 118.791 517.007 116.898 517.737 115.303C518.479 113.695 519.519 112.458 520.854 111.592C522.203 110.726 523.786 110.293 525.604 110.293ZM525.567 112.816C523.922 112.816 522.611 113.354 521.634 114.431C520.657 115.507 520.075 117.01 519.89 118.939H530.651C530.639 117.727 530.447 116.663 530.076 115.748C529.717 114.82 529.167 114.103 528.425 113.596C527.683 113.076 526.73 112.816 525.567 112.816ZM225.019 175.782C225.019 177.39 224.617 178.763 223.812 179.901C223.021 181.027 221.908 181.887 220.473 182.48C219.038 183.074 217.349 183.371 215.407 183.371C214.381 183.371 213.41 183.322 212.494 183.223C211.579 183.124 210.738 182.981 209.971 182.796C209.204 182.61 208.53 182.382 207.948 182.109V179.085C208.876 179.468 210.008 179.827 211.344 180.161C212.68 180.483 214.077 180.644 215.537 180.644C216.898 180.644 218.048 180.464 218.988 180.105C219.928 179.734 220.64 179.209 221.122 178.528C221.617 177.836 221.864 177.007 221.864 176.042C221.864 175.114 221.66 174.341 221.252 173.723C220.844 173.092 220.163 172.523 219.211 172.016C218.271 171.496 216.984 170.946 215.352 170.364C214.201 169.956 213.187 169.511 212.309 169.028C211.43 168.534 210.694 167.977 210.101 167.358C209.507 166.74 209.055 166.022 208.746 165.206C208.449 164.39 208.301 163.456 208.301 162.404C208.301 160.957 208.666 159.72 209.396 158.693C210.138 157.654 211.158 156.863 212.457 156.318C213.768 155.762 215.271 155.483 216.966 155.483C218.413 155.483 219.749 155.619 220.974 155.892C222.211 156.164 223.342 156.529 224.369 156.986L223.386 159.695C222.409 159.287 221.369 158.947 220.269 158.675C219.18 158.403 218.054 158.267 216.892 158.267C215.729 158.267 214.745 158.44 213.941 158.786C213.15 159.12 212.544 159.596 212.123 160.215C211.702 160.833 211.492 161.569 211.492 162.423C211.492 163.375 211.69 164.167 212.086 164.798C212.494 165.429 213.137 165.992 214.016 166.486C214.906 166.969 216.081 167.476 217.541 168.008C219.137 168.589 220.491 169.208 221.604 169.863C222.718 170.507 223.565 171.298 224.146 172.238C224.728 173.166 225.019 174.347 225.019 175.782ZM247.637 172.795C247.637 174.465 247.42 175.955 246.987 177.267C246.554 178.578 245.93 179.685 245.113 180.588C244.297 181.491 243.307 182.184 242.145 182.666C240.994 183.136 239.689 183.371 238.229 183.371C236.869 183.371 235.619 183.136 234.481 182.666C233.356 182.184 232.379 181.491 231.55 180.588C230.733 179.685 230.096 178.578 229.639 177.267C229.193 175.955 228.971 174.465 228.971 172.795C228.971 170.568 229.348 168.676 230.103 167.117C230.857 165.546 231.933 164.353 233.331 163.536C234.741 162.707 236.417 162.293 238.359 162.293C240.215 162.293 241.835 162.707 243.221 163.536C244.618 164.365 245.701 165.565 246.468 167.136C247.247 168.694 247.637 170.581 247.637 172.795ZM232.162 172.795C232.162 174.428 232.379 175.844 232.812 177.044C233.244 178.244 233.912 179.172 234.815 179.827C235.718 180.483 236.881 180.811 238.304 180.811C239.714 180.811 240.87 180.483 241.773 179.827C242.689 179.172 243.363 178.244 243.796 177.044C244.229 175.844 244.445 174.428 244.445 172.795C244.445 171.174 244.229 169.777 243.796 168.602C243.363 167.414 242.695 166.499 241.792 165.855C240.889 165.212 239.72 164.891 238.285 164.891C236.17 164.891 234.618 165.59 233.628 166.987C232.651 168.385 232.162 170.321 232.162 172.795ZM262.017 165.076H256.951V183H253.871V165.076H250.271V163.592L253.871 162.571V161.217C253.871 159.51 254.125 158.124 254.632 157.061C255.139 155.984 255.875 155.193 256.84 154.686C257.805 154.178 258.98 153.925 260.365 153.925C261.145 153.925 261.856 153.993 262.499 154.129C263.155 154.265 263.73 154.42 264.225 154.593L263.427 157.023C263.006 156.887 262.53 156.764 261.998 156.652C261.479 156.529 260.947 156.467 260.402 156.467C259.227 156.467 258.355 156.85 257.786 157.617C257.229 158.372 256.951 159.559 256.951 161.18V162.664H262.017V165.076ZM272.333 180.848C272.84 180.848 273.36 180.804 273.892 180.718C274.424 180.631 274.856 180.526 275.19 180.402V182.796C274.832 182.957 274.331 183.093 273.688 183.204C273.057 183.315 272.438 183.371 271.832 183.371C270.756 183.371 269.779 183.186 268.9 182.814C268.022 182.431 267.317 181.788 266.785 180.885C266.266 179.982 266.006 178.732 266.006 177.137V165.076H263.111V163.573L266.024 162.367L267.249 157.951H269.104V162.664H275.061V165.076H269.104V177.044C269.104 178.318 269.395 179.271 269.977 179.901C270.57 180.532 271.356 180.848 272.333 180.848ZM295.86 182.963L292.242 171.125C292.081 170.618 291.927 170.123 291.778 169.641C291.642 169.146 291.512 168.676 291.389 168.23C291.277 167.773 291.172 167.352 291.073 166.969C290.987 166.573 290.912 166.233 290.851 165.948H290.721C290.671 166.233 290.603 166.573 290.517 166.969C290.43 167.352 290.325 167.773 290.201 168.23C290.09 168.688 289.966 169.171 289.83 169.678C289.694 170.173 289.539 170.674 289.366 171.181L285.581 182.963H282.111L276.508 162.627H279.699L282.631 173.853C282.829 174.595 283.014 175.331 283.188 176.061C283.373 176.778 283.528 177.458 283.651 178.102C283.787 178.732 283.886 179.283 283.948 179.753H284.097C284.171 179.444 284.251 179.073 284.338 178.64C284.437 178.207 284.542 177.749 284.653 177.267C284.777 176.772 284.907 176.283 285.043 175.801C285.179 175.306 285.315 174.842 285.451 174.409L289.199 162.627H292.521L296.139 174.391C296.324 174.984 296.504 175.603 296.677 176.246C296.862 176.889 297.029 177.514 297.178 178.12C297.326 178.714 297.431 179.246 297.493 179.716H297.642C297.691 179.295 297.784 178.776 297.92 178.157C298.056 177.539 298.211 176.858 298.384 176.116C298.569 175.374 298.761 174.619 298.959 173.853L301.928 162.627H305.063L299.441 182.963H295.86ZM316.382 162.33C318.806 162.33 320.606 162.874 321.781 163.963C322.956 165.051 323.544 166.789 323.544 169.177V183H321.299L320.705 179.994H320.557C319.988 180.736 319.394 181.361 318.775 181.868C318.157 182.363 317.439 182.74 316.623 183C315.819 183.247 314.829 183.371 313.654 183.371C312.417 183.371 311.316 183.155 310.352 182.722C309.399 182.289 308.645 181.633 308.088 180.755C307.544 179.877 307.271 178.763 307.271 177.415C307.271 175.386 308.076 173.828 309.684 172.739C311.292 171.651 313.741 171.057 317.031 170.958L320.538 170.81V169.566C320.538 167.81 320.161 166.579 319.406 165.874C318.652 165.169 317.588 164.816 316.215 164.816C315.151 164.816 314.137 164.971 313.172 165.28C312.207 165.59 311.292 165.954 310.426 166.375L309.479 164.037C310.395 163.567 311.446 163.165 312.634 162.831C313.821 162.497 315.071 162.33 316.382 162.33ZM320.501 172.98L317.402 173.11C314.867 173.209 313.079 173.624 312.04 174.354C311.001 175.083 310.481 176.116 310.481 177.452C310.481 178.615 310.834 179.475 311.539 180.031C312.244 180.588 313.178 180.866 314.341 180.866C316.147 180.866 317.625 180.365 318.775 179.363C319.926 178.361 320.501 176.858 320.501 174.854V172.98ZM339.13 162.293C339.538 162.293 339.965 162.318 340.41 162.367C340.855 162.404 341.251 162.46 341.598 162.534L341.208 165.392C340.874 165.305 340.503 165.237 340.095 165.188C339.687 165.138 339.303 165.113 338.944 165.113C338.128 165.113 337.355 165.28 336.625 165.614C335.908 165.936 335.277 166.406 334.732 167.024C334.188 167.631 333.761 168.367 333.452 169.232C333.143 170.086 332.988 171.038 332.988 172.09V183H329.89V162.664H332.45L332.784 166.412H332.914C333.335 165.658 333.842 164.971 334.436 164.353C335.029 163.722 335.716 163.221 336.495 162.85C337.287 162.479 338.165 162.293 339.13 162.293ZM353.269 162.293C355 162.293 356.485 162.676 357.722 163.443C358.959 164.21 359.905 165.286 360.561 166.672C361.216 168.045 361.544 169.653 361.544 171.496V173.407H347.498C347.535 175.795 348.129 177.613 349.279 178.862C350.43 180.112 352.05 180.736 354.141 180.736C355.427 180.736 356.565 180.619 357.555 180.384C358.544 180.149 359.571 179.802 360.635 179.345V182.054C359.608 182.511 358.588 182.845 357.573 183.056C356.571 183.266 355.384 183.371 354.011 183.371C352.056 183.371 350.349 182.975 348.89 182.184C347.442 181.38 346.317 180.204 345.513 178.658C344.709 177.112 344.307 175.219 344.307 172.98C344.307 170.791 344.672 168.898 345.401 167.303C346.144 165.695 347.183 164.458 348.519 163.592C349.867 162.726 351.45 162.293 353.269 162.293ZM353.231 164.816C351.586 164.816 350.275 165.354 349.298 166.431C348.321 167.507 347.739 169.01 347.554 170.939H358.315C358.303 169.727 358.111 168.663 357.74 167.748C357.382 166.82 356.831 166.103 356.089 165.596C355.347 165.076 354.394 164.816 353.231 164.816Z" fill="#257683"/>
</svg>
