<?xml version="1.0" standalone="no"?>
<!DOCTYPE svg PUBLIC "-//W3C//DTD SVG 20010904//EN"
 "http://www.w3.org/TR/2001/REC-SVG-20010904/DTD/svg10.dtd">
<svg version="1.0" xmlns="http://www.w3.org/2000/svg"
 width="808.000000pt" height="808.000000pt" viewBox="0 0 808.000000 808.000000"
 preserveAspectRatio="xMidYMid meet">
<metadata>
Created by potrace 1.14, written by Peter Selinger 2001-2017
</metadata>
<g transform="translate(0.000000,808.000000) scale(0.100000,-0.100000)"
fill="#000000" stroke="none">
<path d="M3715 8034 c-22 -2 -103 -8 -180 -14 -664 -51 -1328 -285 -1900 -671
-384 -259 -765 -634 -1030 -1014 -255 -365 -467 -821 -569 -1225 -47 -186 -42
-343 19 -519 64 -190 257 -471 480 -700 551 -567 1329 -891 2330 -972 191 -16
624 -16 825 0 615 48 1207 179 1735 386 168 66 503 232 605 300 289 194 472
420 545 672 89 306 -5 626 -279 945 -116 136 -336 311 -527 421 -434 249
-1010 421 -1604 479 -167 16 -681 16 -850 0 -399 -39 -781 -115 -1140 -227
-82 -26 -226 -71 -320 -100 -213 -66 -248 -79 -252 -92 -5 -13 95 -91 152
-121 65 -33 140 -50 298 -68 81 -9 147 -20 147 -24 0 -3 -53 -14 -117 -24 -65
-9 -190 -28 -278 -41 -88 -13 -263 -40 -390 -59 -126 -19 -253 -38 -282 -42
l-52 -6 49 123 c47 121 204 519 311 789 29 75 55 127 57 117 2 -10 -4 -85 -12
-167 -19 -175 -12 -249 34 -349 28 -59 31 -62 49 -50 10 8 72 53 137 100 519
376 1152 660 1779 798 394 86 588 106 1050 105 417 0 544 -11 895 -75 622
-112 1371 -386 1843 -674 43 -26 80 -45 82 -43 15 15 -228 380 -373 563 -115
144 -426 458 -572 577 -616 501 -1349 804 -2135 883 -148 15 -485 27 -560 19z"/>
<path d="M7760 3604 c-256 -312 -602 -619 -970 -860 -1167 -763 -2857 -1045
-4565 -763 -725 120 -1411 374 -1990 740 -53 33 -99 59 -101 56 -8 -8 103
-272 176 -417 200 -400 420 -701 749 -1030 251 -251 468 -422 755 -595 1092
-658 2450 -751 3633 -251 650 275 1232 738 1657 1319 31 42 54 77 51 77 -3 0
-58 -35 -123 -78 -1162 -775 -2553 -1072 -4032 -861 -411 59 -909 182 -1248
310 -104 39 -155 66 -102 55 39 -8 304 -34 525 -51 1212 -92 2273 -3 3140 264
1106 340 1921 974 2375 1845 69 132 145 305 137 312 -2 2 -32 -30 -67 -72z"/>
</g>
</svg>
