<svg width="512" height="512" viewBox="0 0 512 512" fill="none" xmlns="http://www.w3.org/2000/svg">
<g clip-path="url(#clip0_2_4)">
<path d="M480 448H117.333C103.188 448 89.6229 442.381 79.621 432.379C69.619 422.377 64 408.812 64 394.667V32C64 23.5131 60.6286 15.3737 54.6274 9.37258C48.6263 3.37142 40.4869 0 32 0C23.5131 0 15.3737 3.37142 9.37258 9.37258C3.37142 15.3737 0 23.5131 0 32L0 394.667C0.033881 425.775 12.4066 455.6 34.4036 477.596C56.4005 499.593 86.225 511.966 117.333 512H480C488.487 512 496.626 508.629 502.627 502.627C508.629 496.626 512 488.487 512 480C512 471.513 508.629 463.374 502.627 457.373C496.626 451.371 488.487 448 480 448Z" fill="white"/>
<path d="M202.667 192C194.18 192 186.04 195.371 180.039 201.373C174.038 207.374 170.667 215.513 170.667 224V373.333C170.667 381.82 174.038 389.96 180.039 395.961C186.04 401.962 194.18 405.333 202.667 405.333C211.154 405.333 219.293 401.962 225.294 395.961C231.295 389.96 234.667 381.82 234.667 373.333V224C234.667 215.513 231.295 207.374 225.294 201.373C219.293 195.371 211.154 192 202.667 192Z" fill="white"/>
<path d="M298.667 288V373.333C298.667 381.82 302.038 389.96 308.039 395.961C314.04 401.962 322.18 405.333 330.667 405.333C339.154 405.333 347.293 401.962 353.294 395.961C359.295 389.96 362.667 381.82 362.667 373.333V288C362.667 279.513 359.295 271.374 353.294 265.373C347.293 259.371 339.154 256 330.667 256C322.18 256 314.04 259.371 308.039 265.373C302.038 271.374 298.667 279.513 298.667 288Z" fill="white"/>
<path d="M426.667 202.667V373.333C426.667 381.82 430.038 389.96 436.039 395.961C442.04 401.962 450.18 405.333 458.667 405.333C467.154 405.333 475.293 401.962 481.294 395.961C487.295 389.96 490.667 381.82 490.667 373.333V202.667C490.667 194.18 487.295 186.04 481.294 180.039C475.293 174.038 467.154 170.667 458.667 170.667C450.18 170.667 442.04 174.038 436.039 180.039C430.038 186.04 426.667 194.18 426.667 202.667Z" fill="white"/>
<path d="M128 160C135.263 160.015 142.312 157.538 147.968 152.981L196.565 114.133C206.378 106.255 218.757 102.281 231.322 102.974C243.887 103.667 255.753 108.978 264.64 117.888C285.15 138.137 312.472 150.014 341.269 151.197C370.067 152.38 398.271 142.786 420.373 124.288L500.672 56.3413C504.093 53.697 506.943 50.3867 509.049 46.6104C511.156 42.8342 512.475 38.6702 512.927 34.3699C513.379 30.0696 512.955 25.7223 511.681 21.5904C510.406 17.4585 508.307 13.6278 505.511 10.3296C502.715 7.03133 499.28 4.33398 495.412 2.4004C491.544 0.466824 487.325 -0.662872 483.009 -0.920472C478.693 -1.17807 474.369 -0.55823 470.299 0.901624C466.229 2.36148 462.497 4.63106 459.328 7.57332L379.051 75.52C369.218 83.7188 356.682 87.9561 343.892 87.4038C331.101 86.8515 318.977 81.5492 309.888 72.5333C289.879 52.4679 263.164 40.4991 234.871 38.9242C206.577 37.3493 178.699 46.2792 156.587 64L108.011 103.019C102.835 107.162 99.0746 112.81 97.2479 119.182C95.4211 125.555 95.6186 132.337 97.8131 138.593C100.008 144.848 104.091 150.268 109.498 154.103C114.906 157.937 121.371 159.998 128 160Z" fill="white"/>
</g>
<defs>
<clipPath id="clip0_2_4">
<rect width="512" height="512" fill="white"/>
</clipPath>
</defs>
</svg>
