<svg width="574" height="200" viewBox="0 0 574 200" fill="none" xmlns="http://www.w3.org/2000/svg">
<path d="M40.0611 168.254C151.723 181.363 185.6 135.017 195.724 109.39C195.752 109.132 195.786 108.875 195.81 108.614C191.034 115.01 185.073 120.664 179.29 125.424C146.053 152.814 96.7101 158.42 55.0604 151.417C36.2915 148.261 18.5703 141.488 3.1156 131.237C16.7592 169.492 53.5916 196.902 96.895 196.902C131.156 196.902 161.36 179.746 179.242 153.647C112.569 200.692 40.0611 168.254 40.0611 168.254Z" fill="#257683"/>
<path d="M170.871 44.5119C175.37 46.5525 180.084 49.0034 184.535 51.9017C167.759 21.0034 134.809 0 96.8945 0C50.77 0 11.9826 31.0983 0.745884 73.2746C-0.737373 78.8606 0.0118949 84.7979 2.83778 89.8509C26.9169 133.088 88.8658 134.851 130.694 120.319C136.29 118.385 141.726 116.023 146.953 113.254C159.782 106.414 169.923 93.8271 163.226 79.1119C156.361 64.0373 138.534 55.5186 123.346 51.3288C99.8423 44.8407 74.4177 46.7458 51.4513 54.4407C48.4145 55.4576 43.7137 56.6339 39.6121 58.2407C40.5536 59.3593 41.5293 60.0475 41.5293 60.0475C43.4817 61.6417 45.859 62.6414 48.3734 62.9254L55.3955 63.7153L41.2794 65.8475L27.1634 67.9797L32.3572 54.8102L37.5544 41.6373L36.7943 48.5966C36.4965 51.3424 37.0888 53.9729 38.3316 56.2237C38.448 56.4983 38.5884 56.7593 38.7356 57.0102C54.8922 44.1932 103.3 13.9119 170.871 44.5119Z" fill="#38BBBA"/>
<path d="M241.192 28.528H246.952L260.968 70H256.424L252.136 57.136H236.008L231.72 70H227.176L241.192 28.528ZM237.16 53.552H251.048L244.264 32.048H244.072L237.16 53.552ZM280.405 37.936C285.354 37.936 288.661 39.4933 290.325 42.608C291.136 44.144 291.69 45.7867 291.989 47.536C292.288 49.2427 292.437 51.4613 292.437 54.192C292.437 56.88 292.074 59.3333 291.349 61.552C290.624 63.728 289.77 65.3707 288.789 66.48C287.808 67.5893 286.677 68.4853 285.397 69.168C283.562 70.1493 281.792 70.64 280.085 70.64C278.421 70.64 275.818 69.8933 272.277 68.4V82.864H268.309V46.64L267.221 38.896H269.845L270.037 39.088L271.189 42.352C273.962 39.408 277.034 37.936 280.405 37.936ZM272.277 65.648C274.581 66.4587 276.821 66.864 278.997 66.864C281.216 66.864 282.858 66.608 283.925 66.096C285.034 65.5413 285.845 64.944 286.357 64.304C286.912 63.6213 287.317 62.6187 287.573 61.296C287.872 59.9733 288.021 58.928 288.021 58.16C288.064 57.392 288.085 56.0907 288.085 54.256C288.085 52.3787 288.042 50.8853 287.957 49.776C287.914 48.624 287.765 47.4507 287.509 46.256C287.296 45.0187 286.933 44.144 286.421 43.632C285.141 42.352 283.242 41.712 280.725 41.712C277.141 41.712 274.325 42.8853 272.277 45.232V65.648ZM313.218 37.936C318.167 37.936 321.474 39.4933 323.138 42.608C323.948 44.144 324.503 45.7867 324.802 47.536C325.1 49.2427 325.25 51.4613 325.25 54.192C325.25 56.88 324.887 59.3333 324.162 61.552C323.436 63.728 322.583 65.3707 321.602 66.48C320.62 67.5893 319.49 68.4853 318.21 69.168C316.375 70.1493 314.604 70.64 312.898 70.64C311.234 70.64 308.631 69.8933 305.09 68.4V82.864H301.122V46.64L300.034 38.896H302.658L302.85 39.088L304.002 42.352C306.775 39.408 309.847 37.936 313.218 37.936ZM305.09 65.648C307.394 66.4587 309.634 66.864 311.81 66.864C314.028 66.864 315.671 66.608 316.738 66.096C317.847 65.5413 318.658 64.944 319.17 64.304C319.724 63.6213 320.13 62.6187 320.386 61.296C320.684 59.9733 320.834 58.928 320.834 58.16C320.876 57.392 320.898 56.0907 320.898 54.256C320.898 52.3787 320.855 50.8853 320.77 49.776C320.727 48.624 320.578 47.4507 320.322 46.256C320.108 45.0187 319.746 44.144 319.234 43.632C317.954 42.352 316.055 41.712 313.538 41.712C309.954 41.712 307.138 42.8853 305.09 45.232V65.648ZM351.171 38.448H355.651L367.491 65.456L367.811 59.76L370.499 28.528H374.915L370.435 70H365.251L353.475 43.312L341.955 70H336.451L332.035 28.528H336.451L339.267 59.696L339.587 65.52L351.171 38.448ZM406.16 49.456C406.16 50.992 406.032 52.592 405.776 54.256H385.68C385.851 58.9493 386.64 62.192 388.048 63.984C389.456 65.7333 391.952 66.608 395.536 66.608C398.224 66.608 401.36 66.032 404.944 64.88L405.328 68.08C404.347 68.464 403.579 68.7413 403.024 68.912C402.512 69.04 401.957 69.2107 401.36 69.424C400.763 69.5947 400.315 69.7227 400.016 69.808C399.717 69.8933 399.291 70 398.736 70.128C398.181 70.256 397.712 70.3413 397.328 70.384C396.176 70.512 395.195 70.576 394.384 70.576C390.373 70.576 387.216 69.168 384.912 66.352C382.608 63.536 381.456 59.6107 381.456 54.576C381.456 51.8027 381.797 49.3707 382.48 47.28C383.163 45.1467 383.973 43.5253 384.912 42.416C385.851 41.264 386.981 40.3467 388.304 39.664C390.267 38.5973 392.4 38.0213 394.704 37.936C402.341 37.9787 406.16 41.8187 406.16 49.456ZM402.128 48.432C402.128 45.872 401.488 44.08 400.208 43.056C398.928 42.032 397.029 41.52 394.512 41.52C391.995 41.52 389.925 42.2027 388.304 43.568C386.683 44.8907 385.851 47.3653 385.808 50.992H401.936C402.064 50.0107 402.128 49.1573 402.128 48.432ZM427.612 38C428.465 38 429.404 38.128 430.428 38.384L428.892 42.16C428.209 42.032 427.527 41.968 426.844 41.968C424.156 41.968 421.425 43.4613 418.652 46.448V70H414.684V46.704L413.596 38.896H416.028L416.22 39.024L417.436 43.568C419.313 41.7333 421.02 40.3467 422.556 39.408C424.092 38.4693 425.777 38 427.612 38ZM440.273 70H436.305V22.896H440.273V51.312L451.409 38.512H456.209L445.265 51.056L461.841 70H456.721L442.705 53.936L440.273 56.752V70Z" fill="#38BBBA"/>
<path d="M240.642 130L231.531 105.99H231.383C231.432 106.497 231.476 107.116 231.513 107.846C231.55 108.576 231.581 109.373 231.605 110.239C231.63 111.093 231.643 111.965 231.643 112.855V130H228.711V102.873H233.387L241.978 125.436H242.107L250.828 102.873H255.467V130H252.35V112.633C252.35 111.829 252.362 111.025 252.387 110.221C252.411 109.404 252.442 108.637 252.479 107.92C252.517 107.19 252.554 106.559 252.591 106.027H252.442L243.221 130H240.642ZM270.032 109.33C272.457 109.33 274.257 109.874 275.432 110.963C276.607 112.051 277.194 113.789 277.194 116.177V130H274.949L274.355 126.994H274.207C273.638 127.736 273.044 128.361 272.426 128.868C271.807 129.363 271.09 129.74 270.273 130C269.469 130.247 268.48 130.371 267.305 130.371C266.068 130.371 264.967 130.155 264.002 129.722C263.049 129.289 262.295 128.633 261.738 127.755C261.194 126.877 260.922 125.763 260.922 124.415C260.922 122.386 261.726 120.828 263.334 119.739C264.942 118.651 267.391 118.057 270.682 117.958L274.188 117.81V116.566C274.188 114.81 273.811 113.579 273.057 112.874C272.302 112.169 271.238 111.816 269.865 111.816C268.801 111.816 267.787 111.971 266.822 112.28C265.857 112.59 264.942 112.954 264.076 113.375L263.13 111.037C264.045 110.567 265.097 110.165 266.284 109.831C267.472 109.497 268.721 109.33 270.032 109.33ZM274.151 119.98L271.053 120.11C268.517 120.209 266.729 120.624 265.69 121.354C264.651 122.083 264.132 123.116 264.132 124.452C264.132 125.615 264.484 126.475 265.189 127.031C265.895 127.588 266.828 127.866 267.991 127.866C269.797 127.866 271.275 127.365 272.426 126.363C273.576 125.361 274.151 123.858 274.151 121.854V119.98ZM299.775 106.473C299.775 107.351 299.596 108.105 299.237 108.736C298.879 109.367 298.433 109.924 297.901 110.406C297.382 110.889 296.856 111.334 296.324 111.742C295.805 112.15 295.366 112.559 295.007 112.967C294.648 113.363 294.469 113.808 294.469 114.303C294.469 114.686 294.555 115.026 294.729 115.323C294.914 115.62 295.248 115.96 295.73 116.344C296.225 116.715 296.93 117.203 297.846 117.81C298.736 118.403 299.509 119.003 300.165 119.609C300.821 120.215 301.322 120.89 301.668 121.632C302.027 122.362 302.206 123.24 302.206 124.267C302.206 125.652 301.915 126.796 301.334 127.699C300.753 128.602 299.936 129.276 298.885 129.722C297.846 130.155 296.627 130.371 295.229 130.371C294.03 130.371 292.984 130.26 292.094 130.037C291.203 129.827 290.424 129.524 289.756 129.128V126.326C290.214 126.586 290.727 126.833 291.296 127.068C291.877 127.303 292.496 127.495 293.151 127.644C293.807 127.792 294.469 127.866 295.137 127.866C296.572 127.866 297.604 127.563 298.235 126.957C298.879 126.339 299.2 125.51 299.2 124.471C299.2 123.815 299.083 123.246 298.848 122.764C298.625 122.281 298.248 121.811 297.716 121.354C297.196 120.883 296.497 120.364 295.619 119.795C294.592 119.127 293.776 118.521 293.17 117.977C292.564 117.432 292.131 116.888 291.871 116.344C291.611 115.787 291.481 115.162 291.481 114.47C291.481 113.666 291.655 112.992 292.001 112.447C292.347 111.891 292.78 111.402 293.3 110.981C293.819 110.561 294.333 110.153 294.84 109.757C295.359 109.361 295.792 108.922 296.139 108.439C296.485 107.945 296.658 107.351 296.658 106.658C296.658 105.57 296.207 104.772 295.304 104.265C294.413 103.757 293.257 103.504 291.834 103.504C290.882 103.504 290.009 103.64 289.218 103.912C288.426 104.172 287.795 104.623 287.325 105.267C286.855 105.897 286.62 106.776 286.62 107.901V130H283.54V107.901C283.54 106.207 283.899 104.852 284.616 103.838C285.334 102.811 286.317 102.069 287.566 101.611C288.816 101.154 290.238 100.925 291.834 100.925C293.43 100.925 294.821 101.135 296.009 101.556C297.196 101.964 298.118 102.582 298.773 103.411C299.441 104.228 299.775 105.248 299.775 106.473ZM312.894 139.129C310.222 139.129 308.162 138.628 306.715 137.626C305.268 136.636 304.544 135.245 304.544 133.451C304.544 132.177 304.946 131.089 305.75 130.186C306.566 129.283 307.692 128.683 309.127 128.386C308.595 128.138 308.137 127.767 307.754 127.272C307.383 126.778 307.197 126.209 307.197 125.565C307.197 124.823 307.401 124.174 307.81 123.617C308.23 123.048 308.867 122.504 309.721 121.984C308.657 121.551 307.791 120.822 307.123 119.795C306.467 118.756 306.14 117.55 306.14 116.177C306.14 114.717 306.443 113.474 307.049 112.447C307.655 111.408 308.533 110.617 309.684 110.072C310.834 109.528 312.226 109.256 313.858 109.256C314.217 109.256 314.576 109.274 314.935 109.312C315.306 109.336 315.658 109.38 315.992 109.441C316.326 109.491 316.617 109.553 316.864 109.627H323.841V111.612L320.093 112.076C320.464 112.559 320.773 113.14 321.021 113.82C321.268 114.501 321.392 115.255 321.392 116.084C321.392 118.113 320.705 119.727 319.332 120.927C317.959 122.114 316.073 122.708 313.673 122.708C313.104 122.708 312.522 122.659 311.929 122.56C311.323 122.894 310.859 123.265 310.537 123.673C310.228 124.081 310.073 124.551 310.073 125.083C310.073 125.479 310.191 125.794 310.426 126.029C310.673 126.264 311.026 126.438 311.483 126.549C311.941 126.648 312.492 126.697 313.135 126.697H316.716C318.93 126.697 320.625 127.161 321.8 128.089C322.987 129.017 323.581 130.371 323.581 132.152C323.581 134.404 322.666 136.129 320.835 137.329C319.004 138.529 316.357 139.129 312.894 139.129ZM312.986 136.717C314.669 136.717 316.06 136.544 317.161 136.197C318.274 135.863 319.103 135.375 319.647 134.731C320.204 134.101 320.482 133.346 320.482 132.468C320.482 131.651 320.297 131.033 319.926 130.612C319.555 130.204 319.01 129.932 318.293 129.796C317.576 129.647 316.697 129.573 315.658 129.573H312.133C311.217 129.573 310.42 129.715 309.739 130C309.059 130.285 308.533 130.705 308.162 131.262C307.803 131.818 307.624 132.511 307.624 133.34C307.624 134.441 308.088 135.276 309.016 135.845C309.943 136.426 311.267 136.717 312.986 136.717ZM313.784 120.463C315.256 120.463 316.363 120.092 317.105 119.35C317.848 118.607 318.219 117.525 318.219 116.103C318.219 114.581 317.841 113.443 317.087 112.688C316.332 111.922 315.219 111.538 313.747 111.538C312.337 111.538 311.248 111.934 310.481 112.726C309.727 113.505 309.35 114.649 309.35 116.158C309.35 117.544 309.733 118.607 310.5 119.35C311.267 120.092 312.362 120.463 313.784 120.463ZM335.679 109.293C337.41 109.293 338.895 109.676 340.132 110.443C341.369 111.21 342.315 112.286 342.971 113.672C343.626 115.045 343.954 116.653 343.954 118.496V120.407H329.908C329.945 122.795 330.539 124.613 331.689 125.862C332.84 127.112 334.46 127.736 336.551 127.736C337.837 127.736 338.975 127.619 339.965 127.384C340.954 127.149 341.981 126.802 343.045 126.345V129.054C342.018 129.511 340.998 129.845 339.983 130.056C338.981 130.266 337.794 130.371 336.421 130.371C334.466 130.371 332.759 129.975 331.3 129.184C329.853 128.38 328.727 127.204 327.923 125.658C327.119 124.112 326.717 122.219 326.717 119.98C326.717 117.791 327.082 115.898 327.812 114.303C328.554 112.695 329.593 111.458 330.929 110.592C332.277 109.726 333.86 109.293 335.679 109.293ZM335.642 111.816C333.996 111.816 332.685 112.354 331.708 113.431C330.731 114.507 330.149 116.01 329.964 117.939H340.726C340.713 116.727 340.521 115.663 340.15 114.748C339.792 113.82 339.241 113.103 338.499 112.596C337.757 112.076 336.804 111.816 335.642 111.816ZM362.342 124.434C362.342 125.732 362.014 126.827 361.358 127.718C360.715 128.596 359.787 129.258 358.575 129.703C357.375 130.148 355.94 130.371 354.271 130.371C352.848 130.371 351.617 130.26 350.578 130.037C349.539 129.814 348.63 129.499 347.851 129.091V126.252C348.679 126.66 349.669 127.031 350.819 127.365C351.97 127.699 353.145 127.866 354.345 127.866C356.101 127.866 357.375 127.582 358.167 127.013C358.959 126.444 359.354 125.671 359.354 124.693C359.354 124.137 359.194 123.648 358.872 123.228C358.563 122.795 358.037 122.38 357.295 121.984C356.553 121.576 355.526 121.131 354.215 120.648C352.916 120.154 351.79 119.665 350.838 119.183C349.898 118.688 349.168 118.088 348.648 117.383C348.141 116.678 347.888 115.762 347.888 114.637C347.888 112.917 348.58 111.6 349.966 110.685C351.364 109.757 353.194 109.293 355.458 109.293C356.683 109.293 357.827 109.417 358.891 109.664C359.967 109.899 360.969 110.221 361.896 110.629L360.857 113.097C360.016 112.738 359.119 112.435 358.167 112.188C357.215 111.94 356.243 111.816 355.254 111.816C353.831 111.816 352.737 112.051 351.97 112.521C351.215 112.992 350.838 113.635 350.838 114.451C350.838 115.082 351.011 115.602 351.357 116.01C351.716 116.418 352.285 116.801 353.064 117.16C353.844 117.519 354.87 117.939 356.145 118.422C357.419 118.892 358.52 119.381 359.447 119.888C360.375 120.382 361.086 120.989 361.581 121.706C362.088 122.411 362.342 123.32 362.342 124.434ZM375.441 130.371C373.611 130.371 371.996 129.994 370.599 129.239C369.201 128.485 368.112 127.334 367.333 125.788C366.554 124.242 366.164 122.294 366.164 119.943C366.164 117.482 366.572 115.472 367.389 113.913C368.217 112.342 369.355 111.179 370.803 110.425C372.25 109.67 373.895 109.293 375.738 109.293C376.753 109.293 377.73 109.398 378.67 109.608C379.622 109.806 380.402 110.06 381.008 110.369L380.08 112.948C379.462 112.701 378.744 112.478 377.928 112.28C377.124 112.082 376.369 111.983 375.664 111.983C374.254 111.983 373.079 112.286 372.139 112.893C371.211 113.499 370.512 114.389 370.042 115.564C369.584 116.74 369.355 118.187 369.355 119.906C369.355 121.551 369.578 122.955 370.023 124.118C370.481 125.281 371.155 126.172 372.046 126.79C372.949 127.396 374.075 127.699 375.423 127.699C376.499 127.699 377.47 127.588 378.336 127.365C379.202 127.13 379.987 126.858 380.692 126.549V129.295C380.012 129.641 379.251 129.907 378.41 130.093C377.581 130.278 376.592 130.371 375.441 130.371ZM388.597 101.129V109.757C388.597 110.252 388.584 110.753 388.56 111.26C388.535 111.755 388.492 112.212 388.43 112.633H388.634C389.054 111.915 389.586 111.315 390.229 110.833C390.885 110.338 391.627 109.967 392.456 109.72C393.285 109.46 394.163 109.33 395.091 109.33C396.724 109.33 398.084 109.59 399.173 110.109C400.274 110.629 401.096 111.433 401.641 112.521C402.197 113.61 402.476 115.02 402.476 116.752V130H399.433V116.956C399.433 115.261 399.043 113.993 398.264 113.152C397.497 112.311 396.315 111.891 394.72 111.891C393.211 111.891 392.005 112.181 391.102 112.763C390.211 113.332 389.568 114.173 389.172 115.286C388.788 116.399 388.597 117.76 388.597 119.368V130H385.517V101.129H388.597ZM418.451 109.293C420.863 109.293 422.688 109.887 423.925 111.074C425.162 112.249 425.78 114.142 425.78 116.752V130H422.737V116.956C422.737 115.261 422.348 113.993 421.568 113.152C420.801 112.311 419.62 111.891 418.024 111.891C415.773 111.891 414.19 112.528 413.274 113.802C412.359 115.076 411.901 116.925 411.901 119.35V130H408.821V109.664H411.308L411.771 112.596H411.938C412.371 111.878 412.922 111.278 413.59 110.796C414.258 110.301 415.006 109.93 415.835 109.683C416.664 109.423 417.536 109.293 418.451 109.293ZM439.956 109.293C441.688 109.293 443.172 109.676 444.409 110.443C445.646 111.21 446.592 112.286 447.248 113.672C447.904 115.045 448.231 116.653 448.231 118.496V120.407H434.186C434.223 122.795 434.816 124.613 435.967 125.862C437.117 127.112 438.738 127.736 440.828 127.736C442.115 127.736 443.253 127.619 444.242 127.384C445.232 127.149 446.258 126.802 447.322 126.345V129.054C446.296 129.511 445.275 129.845 444.261 130.056C443.259 130.266 442.071 130.371 440.698 130.371C438.744 130.371 437.037 129.975 435.577 129.184C434.13 128.38 433.004 127.204 432.2 125.658C431.396 124.112 430.994 122.219 430.994 119.98C430.994 117.791 431.359 115.898 432.089 114.303C432.831 112.695 433.87 111.458 435.206 110.592C436.554 109.726 438.138 109.293 439.956 109.293ZM439.919 111.816C438.274 111.816 436.963 112.354 435.985 113.431C435.008 114.507 434.427 116.01 434.241 117.939H445.003C444.991 116.727 444.799 115.663 444.428 114.748C444.069 113.82 443.519 113.103 442.776 112.596C442.034 112.076 441.082 111.816 439.919 111.816ZM456.544 109.664V130H453.464V109.664H456.544ZM455.041 102.057C455.548 102.057 455.981 102.224 456.34 102.558C456.711 102.879 456.896 103.386 456.896 104.079C456.896 104.759 456.711 105.267 456.34 105.601C455.981 105.935 455.548 106.102 455.041 106.102C454.509 106.102 454.064 105.935 453.705 105.601C453.359 105.267 453.186 104.759 453.186 104.079C453.186 103.386 453.359 102.879 453.705 102.558C454.064 102.224 454.509 102.057 455.041 102.057ZM470.312 130.371C467.739 130.371 465.698 129.493 464.188 127.736C462.692 125.98 461.943 123.37 461.943 119.906C461.943 116.406 462.71 113.765 464.244 111.983C465.778 110.19 467.819 109.293 470.367 109.293C471.443 109.293 472.383 109.435 473.188 109.72C473.992 110.004 474.684 110.388 475.266 110.87C475.847 111.34 476.336 111.878 476.731 112.484H476.954C476.905 112.101 476.855 111.575 476.806 110.907C476.756 110.239 476.731 109.695 476.731 109.274V101.129H479.812V130H477.325L476.861 127.105H476.731C476.348 127.712 475.859 128.262 475.266 128.757C474.684 129.252 473.985 129.647 473.169 129.944C472.365 130.229 471.412 130.371 470.312 130.371ZM470.794 127.811C472.971 127.811 474.511 127.192 475.414 125.955C476.317 124.718 476.769 122.881 476.769 120.444V119.888C476.769 117.302 476.336 115.317 475.47 113.932C474.616 112.546 473.058 111.854 470.794 111.854C468.901 111.854 467.485 112.583 466.545 114.043C465.605 115.49 465.135 117.469 465.135 119.98C465.135 122.479 465.599 124.409 466.526 125.77C467.466 127.13 468.889 127.811 470.794 127.811ZM494.173 109.293C495.905 109.293 497.389 109.676 498.626 110.443C499.863 111.21 500.809 112.286 501.465 113.672C502.12 115.045 502.448 116.653 502.448 118.496V120.407H488.402C488.439 122.795 489.033 124.613 490.184 125.862C491.334 127.112 492.954 127.736 495.045 127.736C496.331 127.736 497.469 127.619 498.459 127.384C499.449 127.149 500.475 126.802 501.539 126.345V129.054C500.512 129.511 499.492 129.845 498.478 130.056C497.476 130.266 496.288 130.371 494.915 130.371C492.961 130.371 491.254 129.975 489.794 129.184C488.347 128.38 487.221 127.204 486.417 125.658C485.613 124.112 485.211 122.219 485.211 119.98C485.211 117.791 485.576 115.898 486.306 114.303C487.048 112.695 488.087 111.458 489.423 110.592C490.771 109.726 492.354 109.293 494.173 109.293ZM494.136 111.816C492.491 111.816 491.179 112.354 490.202 113.431C489.225 114.507 488.644 116.01 488.458 117.939H499.22C499.207 116.727 499.016 115.663 498.645 114.748C498.286 113.82 497.735 113.103 496.993 112.596C496.251 112.076 495.299 111.816 494.136 111.816ZM516.921 109.293C517.329 109.293 517.756 109.318 518.201 109.367C518.646 109.404 519.042 109.46 519.389 109.534L518.999 112.392C518.665 112.305 518.294 112.237 517.886 112.188C517.478 112.138 517.094 112.113 516.735 112.113C515.919 112.113 515.146 112.28 514.416 112.614C513.699 112.936 513.068 113.406 512.523 114.024C511.979 114.631 511.552 115.367 511.243 116.232C510.934 117.086 510.779 118.038 510.779 119.09V130H507.681V109.664H510.241L510.575 113.412H510.705C511.126 112.658 511.633 111.971 512.227 111.353C512.82 110.722 513.507 110.221 514.286 109.85C515.078 109.479 515.956 109.293 516.921 109.293ZM529.798 127.848C530.305 127.848 530.825 127.804 531.356 127.718C531.888 127.631 532.321 127.526 532.655 127.402V129.796C532.297 129.957 531.796 130.093 531.152 130.204C530.521 130.315 529.903 130.371 529.297 130.371C528.221 130.371 527.243 130.186 526.365 129.814C525.487 129.431 524.782 128.788 524.25 127.885C523.73 126.982 523.471 125.732 523.471 124.137V112.076H520.576V110.573L523.489 109.367L524.714 104.951H526.569V109.664H532.525V112.076H526.569V124.044C526.569 125.318 526.86 126.271 527.441 126.901C528.035 127.532 528.821 127.848 529.798 127.848ZM544.604 109.293C546.336 109.293 547.821 109.676 549.058 110.443C550.295 111.21 551.241 112.286 551.896 113.672C552.552 115.045 552.88 116.653 552.88 118.496V120.407H538.834C538.871 122.795 539.465 124.613 540.615 125.862C541.766 127.112 543.386 127.736 545.477 127.736C546.763 127.736 547.901 127.619 548.891 127.384C549.88 127.149 550.907 126.802 551.971 126.345V129.054C550.944 129.511 549.924 129.845 548.909 130.056C547.907 130.266 546.72 130.371 545.347 130.371C543.392 130.371 541.685 129.975 540.226 129.184C538.778 128.38 537.653 127.204 536.849 125.658C536.045 124.112 535.643 122.219 535.643 119.98C535.643 117.791 536.007 115.898 536.737 114.303C537.479 112.695 538.519 111.458 539.854 110.592C541.203 109.726 542.786 109.293 544.604 109.293ZM544.567 111.816C542.922 111.816 541.611 112.354 540.634 113.431C539.657 114.507 539.075 116.01 538.89 117.939H549.651C549.639 116.727 549.447 115.663 549.076 114.748C548.717 113.82 548.167 113.103 547.425 112.596C546.683 112.076 545.73 111.816 544.567 111.816ZM244.019 174.782C244.019 176.39 243.617 177.763 242.812 178.901C242.021 180.027 240.908 180.887 239.473 181.48C238.038 182.074 236.349 182.371 234.407 182.371C233.381 182.371 232.41 182.322 231.494 182.223C230.579 182.124 229.738 181.981 228.971 181.796C228.204 181.61 227.53 181.382 226.948 181.109V178.085C227.876 178.468 229.008 178.827 230.344 179.161C231.68 179.483 233.077 179.644 234.537 179.644C235.898 179.644 237.048 179.464 237.988 179.105C238.928 178.734 239.64 178.209 240.122 177.528C240.617 176.836 240.864 176.007 240.864 175.042C240.864 174.114 240.66 173.341 240.252 172.723C239.844 172.092 239.163 171.523 238.211 171.016C237.271 170.496 235.984 169.946 234.352 169.364C233.201 168.956 232.187 168.511 231.309 168.028C230.43 167.534 229.694 166.977 229.101 166.358C228.507 165.74 228.055 165.022 227.746 164.206C227.449 163.39 227.301 162.456 227.301 161.404C227.301 159.957 227.666 158.72 228.396 157.693C229.138 156.654 230.158 155.863 231.457 155.318C232.768 154.762 234.271 154.483 235.966 154.483C237.413 154.483 238.749 154.619 239.974 154.892C241.211 155.164 242.342 155.529 243.369 155.986L242.386 158.695C241.409 158.287 240.369 157.947 239.269 157.675C238.18 157.403 237.054 157.267 235.892 157.267C234.729 157.267 233.745 157.44 232.941 157.786C232.15 158.12 231.544 158.596 231.123 159.215C230.702 159.833 230.492 160.569 230.492 161.423C230.492 162.375 230.69 163.167 231.086 163.798C231.494 164.429 232.137 164.992 233.016 165.486C233.906 165.969 235.081 166.476 236.541 167.008C238.137 167.589 239.491 168.208 240.604 168.863C241.718 169.507 242.565 170.298 243.146 171.238C243.728 172.166 244.019 173.347 244.019 174.782ZM266.637 171.795C266.637 173.465 266.42 174.955 265.987 176.267C265.554 177.578 264.93 178.685 264.113 179.588C263.297 180.491 262.307 181.184 261.145 181.666C259.994 182.136 258.689 182.371 257.229 182.371C255.869 182.371 254.619 182.136 253.481 181.666C252.356 181.184 251.379 180.491 250.55 179.588C249.733 178.685 249.096 177.578 248.639 176.267C248.193 174.955 247.971 173.465 247.971 171.795C247.971 169.568 248.348 167.676 249.103 166.117C249.857 164.546 250.933 163.353 252.331 162.536C253.741 161.707 255.417 161.293 257.359 161.293C259.215 161.293 260.835 161.707 262.221 162.536C263.618 163.365 264.701 164.565 265.468 166.136C266.247 167.694 266.637 169.581 266.637 171.795ZM251.162 171.795C251.162 173.428 251.379 174.844 251.812 176.044C252.244 177.244 252.912 178.172 253.815 178.827C254.718 179.483 255.881 179.811 257.304 179.811C258.714 179.811 259.87 179.483 260.773 178.827C261.689 178.172 262.363 177.244 262.796 176.044C263.229 174.844 263.445 173.428 263.445 171.795C263.445 170.174 263.229 168.777 262.796 167.602C262.363 166.414 261.695 165.499 260.792 164.855C259.889 164.212 258.72 163.891 257.285 163.891C255.17 163.891 253.618 164.59 252.628 165.987C251.651 167.385 251.162 169.321 251.162 171.795ZM281.017 164.076H275.951V182H272.871V164.076H269.271V162.592L272.871 161.571V160.217C272.871 158.51 273.125 157.124 273.632 156.061C274.139 154.984 274.875 154.193 275.84 153.686C276.805 153.178 277.98 152.925 279.365 152.925C280.145 152.925 280.856 152.993 281.499 153.129C282.155 153.265 282.73 153.42 283.225 153.593L282.427 156.023C282.006 155.887 281.53 155.764 280.998 155.652C280.479 155.529 279.947 155.467 279.402 155.467C278.227 155.467 277.355 155.85 276.786 156.617C276.229 157.372 275.951 158.559 275.951 160.18V161.664H281.017V164.076ZM291.333 179.848C291.84 179.848 292.36 179.804 292.892 179.718C293.424 179.631 293.856 179.526 294.19 179.402V181.796C293.832 181.957 293.331 182.093 292.688 182.204C292.057 182.315 291.438 182.371 290.832 182.371C289.756 182.371 288.779 182.186 287.9 181.814C287.022 181.431 286.317 180.788 285.785 179.885C285.266 178.982 285.006 177.732 285.006 176.137V164.076H282.111V162.573L285.024 161.367L286.249 156.951H288.104V161.664H294.061V164.076H288.104V176.044C288.104 177.318 288.395 178.271 288.977 178.901C289.57 179.532 290.356 179.848 291.333 179.848ZM314.86 181.963L311.242 170.125C311.081 169.618 310.927 169.123 310.778 168.641C310.642 168.146 310.512 167.676 310.389 167.23C310.277 166.773 310.172 166.352 310.073 165.969C309.987 165.573 309.912 165.233 309.851 164.948H309.721C309.671 165.233 309.603 165.573 309.517 165.969C309.43 166.352 309.325 166.773 309.201 167.23C309.09 167.688 308.966 168.171 308.83 168.678C308.694 169.173 308.539 169.674 308.366 170.181L304.581 181.963H301.111L295.508 161.627H298.699L301.631 172.853C301.829 173.595 302.014 174.331 302.188 175.061C302.373 175.778 302.528 176.458 302.651 177.102C302.787 177.732 302.886 178.283 302.948 178.753H303.097C303.171 178.444 303.251 178.073 303.338 177.64C303.437 177.207 303.542 176.749 303.653 176.267C303.777 175.772 303.907 175.283 304.043 174.801C304.179 174.306 304.315 173.842 304.451 173.409L308.199 161.627H311.521L315.139 173.391C315.324 173.984 315.504 174.603 315.677 175.246C315.862 175.889 316.029 176.514 316.178 177.12C316.326 177.714 316.431 178.246 316.493 178.716H316.642C316.691 178.295 316.784 177.776 316.92 177.157C317.056 176.539 317.211 175.858 317.384 175.116C317.569 174.374 317.761 173.619 317.959 172.853L320.928 161.627H324.063L318.441 181.963H314.86ZM335.382 161.33C337.806 161.33 339.606 161.874 340.781 162.963C341.956 164.051 342.544 165.789 342.544 168.177V182H340.299L339.705 178.994H339.557C338.988 179.736 338.394 180.361 337.775 180.868C337.157 181.363 336.439 181.74 335.623 182C334.819 182.247 333.829 182.371 332.654 182.371C331.417 182.371 330.316 182.155 329.352 181.722C328.399 181.289 327.645 180.633 327.088 179.755C326.544 178.877 326.271 177.763 326.271 176.415C326.271 174.386 327.076 172.828 328.684 171.739C330.292 170.651 332.741 170.057 336.031 169.958L339.538 169.81V168.566C339.538 166.81 339.161 165.579 338.406 164.874C337.652 164.169 336.588 163.816 335.215 163.816C334.151 163.816 333.137 163.971 332.172 164.28C331.207 164.59 330.292 164.954 329.426 165.375L328.479 163.037C329.395 162.567 330.446 162.165 331.634 161.831C332.821 161.497 334.071 161.33 335.382 161.33ZM339.501 171.98L336.402 172.11C333.867 172.209 332.079 172.624 331.04 173.354C330.001 174.083 329.481 175.116 329.481 176.452C329.481 177.615 329.834 178.475 330.539 179.031C331.244 179.588 332.178 179.866 333.341 179.866C335.147 179.866 336.625 179.365 337.775 178.363C338.926 177.361 339.501 175.858 339.501 173.854V171.98ZM358.13 161.293C358.538 161.293 358.965 161.318 359.41 161.367C359.855 161.404 360.251 161.46 360.598 161.534L360.208 164.392C359.874 164.305 359.503 164.237 359.095 164.188C358.687 164.138 358.303 164.113 357.944 164.113C357.128 164.113 356.355 164.28 355.625 164.614C354.908 164.936 354.277 165.406 353.732 166.024C353.188 166.631 352.761 167.367 352.452 168.232C352.143 169.086 351.988 170.038 351.988 171.09V182H348.89V161.664H351.45L351.784 165.412H351.914C352.335 164.658 352.842 163.971 353.436 163.353C354.029 162.722 354.716 162.221 355.495 161.85C356.287 161.479 357.165 161.293 358.13 161.293ZM372.269 161.293C374 161.293 375.485 161.676 376.722 162.443C377.959 163.21 378.905 164.286 379.561 165.672C380.216 167.045 380.544 168.653 380.544 170.496V172.407H366.498C366.535 174.795 367.129 176.613 368.279 177.862C369.43 179.112 371.05 179.736 373.141 179.736C374.427 179.736 375.565 179.619 376.555 179.384C377.544 179.149 378.571 178.802 379.635 178.345V181.054C378.608 181.511 377.588 181.845 376.573 182.056C375.571 182.266 374.384 182.371 373.011 182.371C371.056 182.371 369.349 181.975 367.89 181.184C366.442 180.38 365.317 179.204 364.513 177.658C363.709 176.112 363.307 174.219 363.307 171.98C363.307 169.791 363.672 167.898 364.401 166.303C365.144 164.695 366.183 163.458 367.519 162.592C368.867 161.726 370.45 161.293 372.269 161.293ZM372.231 163.816C370.586 163.816 369.275 164.354 368.298 165.431C367.321 166.507 366.739 168.01 366.554 169.939H377.315C377.303 168.727 377.111 167.663 376.74 166.748C376.382 165.82 375.831 165.103 375.089 164.596C374.347 164.076 373.394 163.816 372.231 163.816Z" fill="#257683"/>
</svg>
