<svg width="202" height="200" viewBox="0 0 202 200" fill="none" xmlns="http://www.w3.org/2000/svg">
<path d="M40.0611 168.254C151.723 181.363 185.6 135.017 195.724 109.39C195.752 109.132 195.786 108.875 195.81 108.614C191.034 115.01 185.073 120.664 179.29 125.424C146.053 152.814 96.7101 158.42 55.0604 151.417C36.2915 148.261 18.5703 141.488 3.1156 131.237C16.7592 169.492 53.5916 196.902 96.895 196.902C131.156 196.902 161.36 179.746 179.242 153.647C112.569 200.692 40.0611 168.254 40.0611 168.254Z" fill="#257683"/>
<path d="M170.871 44.5119C175.37 46.5525 180.084 49.0034 184.535 51.9017C167.759 21.0034 134.809 0 96.8945 0C50.77 0 11.9826 31.0983 0.745884 73.2746C-0.737373 78.8606 0.0118949 84.7979 2.83778 89.8509C26.9169 133.088 88.8658 134.851 130.694 120.319C136.29 118.385 141.726 116.023 146.953 113.254C159.782 106.414 169.923 93.8271 163.226 79.1119C156.361 64.0373 138.534 55.5186 123.346 51.3288C99.8423 44.8407 74.4177 46.7458 51.4513 54.4407C48.4145 55.4576 43.7137 56.6339 39.6121 58.2407C40.5536 59.3593 41.5293 60.0475 41.5293 60.0475C43.4817 61.6417 45.859 62.6414 48.3734 62.9254L55.3955 63.7153L41.2794 65.8475L27.1634 67.9797L32.3572 54.8102L37.5544 41.6373L36.7943 48.5966C36.4965 51.3424 37.0888 53.9729 38.3316 56.2237C38.448 56.4983 38.5884 56.7593 38.7356 57.0102C54.8922 44.1932 103.3 13.9119 170.871 44.5119Z" fill="#38BBBA"/>
</svg>
