<svg width="512" height="512" viewBox="0 0 512 512" fill="none" xmlns="http://www.w3.org/2000/svg">
<g clip-path="url(#clip0_3_12)">
<path d="M384 405.333C388.219 405.332 392.342 404.081 395.85 401.737C399.357 399.392 402.091 396.061 403.705 392.163C405.319 388.266 405.742 383.977 404.919 379.839C404.096 375.702 402.065 371.901 399.083 368.917L267.413 237.269C247.41 217.272 220.284 206.039 192 206.039C163.716 206.039 136.59 217.272 116.587 237.269L70.2507 283.584C66.3646 287.608 64.2143 292.996 64.263 298.59C64.3116 304.183 66.5552 309.534 70.5105 313.489C74.4659 317.445 79.8166 319.688 85.4101 319.737C91.0036 319.786 96.3925 317.635 100.416 313.749L146.752 267.435C158.938 255.79 175.145 249.291 192 249.291C208.855 249.291 225.062 255.79 237.248 267.435L368.917 399.083C372.917 403.084 378.343 405.332 384 405.333Z" fill="white"/>
<path d="M341.333 224C356.101 224 370.537 219.621 382.816 211.416C395.095 203.212 404.665 191.551 410.316 177.907C415.968 164.263 417.446 149.251 414.565 134.767C411.684 120.283 404.573 106.978 394.131 96.536C383.688 86.0937 370.384 78.9824 355.9 76.1014C341.416 73.2203 326.403 74.699 312.76 80.3503C299.116 86.0017 287.455 95.5719 279.25 107.851C271.046 120.13 266.667 134.566 266.667 149.333C266.667 169.136 274.533 188.128 288.536 202.131C302.539 216.133 321.53 224 341.333 224ZM341.333 117.333C347.662 117.333 353.849 119.21 359.112 122.726C364.374 126.243 368.475 131.24 370.897 137.087C373.319 142.935 373.953 149.369 372.718 155.576C371.484 161.784 368.436 167.485 363.961 171.961C359.485 176.436 353.784 179.484 347.576 180.718C341.369 181.953 334.935 181.319 329.087 178.897C323.24 176.475 318.242 172.374 314.726 167.112C311.21 161.849 309.333 155.662 309.333 149.333C309.333 140.846 312.705 132.707 318.706 126.706C324.707 120.705 332.846 117.333 341.333 117.333Z" fill="white"/>
<path d="M490.667 341.333C485.009 341.333 479.582 343.581 475.582 347.582C471.581 351.582 469.333 357.009 469.333 362.667V405.333C469.333 422.307 462.591 438.586 450.588 450.588C438.586 462.591 422.307 469.333 405.333 469.333H362.667C357.009 469.333 351.582 471.581 347.582 475.582C343.581 479.582 341.333 485.009 341.333 490.667C341.333 496.325 343.581 501.751 347.582 505.752C351.582 509.752 357.009 512 362.667 512H405.333C433.613 511.966 460.724 500.717 480.721 480.721C500.717 460.724 511.966 433.613 512 405.333V362.667C512 357.009 509.752 351.582 505.752 347.582C501.751 343.581 496.325 341.333 490.667 341.333Z" fill="white"/>
<path d="M21.3333 170.667C26.9913 170.667 32.4175 168.419 36.4183 164.418C40.4191 160.418 42.6667 154.991 42.6667 149.333V106.667C42.6667 89.6928 49.4095 73.4142 61.4118 61.4118C73.4142 49.4095 89.6928 42.6667 106.667 42.6667H149.333C154.991 42.6667 160.418 40.4191 164.418 36.4183C168.419 32.4175 170.667 26.9913 170.667 21.3333C170.667 15.6754 168.419 10.2492 164.418 6.24839C160.418 2.24761 154.991 0 149.333 0L106.667 0C78.3873 0.0338743 51.2759 11.2828 31.2794 31.2794C11.2828 51.2759 0.0338743 78.3873 0 106.667L0 149.333C0 154.991 2.24761 160.418 6.24839 164.418C10.2492 168.419 15.6754 170.667 21.3333 170.667Z" fill="white"/>
<path d="M149.333 469.333H106.667C89.6928 469.333 73.4142 462.591 61.4118 450.588C49.4095 438.586 42.6667 422.307 42.6667 405.333V362.667C42.6667 357.009 40.4191 351.582 36.4183 347.582C32.4175 343.581 26.9913 341.333 21.3333 341.333C15.6754 341.333 10.2492 343.581 6.24839 347.582C2.24761 351.582 0 357.009 0 362.667L0 405.333C0.0338743 433.613 11.2828 460.724 31.2794 480.721C51.2759 500.717 78.3873 511.966 106.667 512H149.333C154.991 512 160.418 509.752 164.418 505.752C168.419 501.751 170.667 496.325 170.667 490.667C170.667 485.009 168.419 479.582 164.418 475.582C160.418 471.581 154.991 469.333 149.333 469.333Z" fill="white"/>
<path d="M405.333 0H362.667C357.009 0 351.582 2.24761 347.582 6.24839C343.581 10.2492 341.333 15.6754 341.333 21.3333C341.333 26.9913 343.581 32.4175 347.582 36.4183C351.582 40.4191 357.009 42.6667 362.667 42.6667H405.333C422.307 42.6667 438.586 49.4095 450.588 61.4118C462.591 73.4142 469.333 89.6928 469.333 106.667V149.333C469.333 154.991 471.581 160.418 475.582 164.418C479.582 168.419 485.009 170.667 490.667 170.667C496.325 170.667 501.751 168.419 505.752 164.418C509.752 160.418 512 154.991 512 149.333V106.667C511.966 78.3873 500.717 51.2759 480.721 31.2794C460.724 11.2828 433.613 0.0338743 405.333 0Z" fill="white"/>
</g>
<defs>
<clipPath id="clip0_3_12">
<rect width="512" height="512" fill="white"/>
</clipPath>
</defs>
</svg>
