<svg width="512" height="512" viewBox="0 0 512 512" fill="none" xmlns="http://www.w3.org/2000/svg">
<g clip-path="url(#clip0_4_21)">
<path d="M490.667 426.667H316.075C309.621 408.599 295.402 394.38 277.334 387.926V299.137C306.006 299.137 331.094 298.881 343.361 298.646C351.018 298.502 358.639 297.565 366.102 295.851C405.303 286.729 435.913 256.119 445.035 216.918C458.433 160.751 424.824 104.09 369.11 88.918L365.441 88.107C359.041 86.678 355.82 85.974 352.897 78.955C325.823 13.652 250.937 -17.34 185.634 9.733C148.084 25.3 120.161 57.778 110.4 97.237C105.781 116.348 105.366 136.233 109.184 155.52C71.304 171.819 53.81 215.739 70.108 253.618C79.054 274.41 96.949 290.021 118.762 296.064C124.567 297.606 130.529 298.48 136.533 298.667C150.506 299.051 190.592 299.222 232.405 299.222H234.666V387.947C216.603 394.396 202.384 408.607 195.925 426.667H21.333C9.551 426.667 0 436.218 0 448C0 459.782 9.551 469.333 21.333 469.333H195.925C207.484 502.511 243.751 520.037 276.929 508.479C295.269 502.09 309.685 487.673 316.074 469.333H490.666C502.448 469.333 511.999 459.782 511.999 448C512 436.218 502.449 426.667 490.667 426.667ZM137.728 256C134.989 255.902 132.269 255.494 129.621 254.784C119.075 251.825 110.83 243.589 107.861 233.045C103.321 217.495 111.117 201.005 126.016 194.645C145.175 186.536 155.777 165.871 151.189 145.578C141.463 99.464 170.962 54.197 217.076 44.472C218.615 44.147 220.163 43.865 221.717 43.626C225.878 43.011 230.077 42.69 234.282 42.666C268.947 42.546 300.262 63.342 313.599 95.338C321.13 114.052 338.082 127.319 358.058 130.133C391.572 139.414 411.693 173.596 403.541 207.402C397.924 230.569 379.795 248.632 356.608 254.165C352.004 255.244 347.299 255.831 342.571 255.914C327.787 256.192 153.835 256.427 137.728 256ZM256 469.333C244.218 469.333 234.667 459.782 234.667 448C234.667 436.218 244.218 426.667 256 426.667C267.782 426.667 277.333 436.218 277.333 448C277.333 459.782 267.782 469.333 256 469.333Z" fill="white"/>
</g>
<defs>
<clipPath id="clip0_4_21">
<rect width="512" height="512" fill="white"/>
</clipPath>
</defs>
</svg>
