<svg width="512" height="512" viewBox="0 0 512 512" fill="none" xmlns="http://www.w3.org/2000/svg">
<g clip-path="url(#clip0_3_10)">
<path d="M11.815 289.919C0.219007 272.859 -2.09899 251.138 5.63601 232.015C22.923 196.75 51.882 168.556 87.597 152.22C113.455 139.361 141.464 131.386 170.216 128.693C157.688 144.109 145.146 160.557 132.59 178.04C107.036 216.736 85.162 257.74 67.255 300.515L59.547 317.799C40.239 316.201 22.691 305.952 11.815 289.919ZM41.181 379.609C22.733 405.082 9.49201 433.944 2.21801 464.543C-2.31699 484.425 10.124 504.22 30.007 508.755C35.418 509.989 41.037 509.988 46.448 508.751C77 501.465 105.817 488.233 131.255 469.809C156.163 444.913 156.173 404.538 131.276 379.63C106.38 354.722 66.005 354.712 41.097 379.609H41.181ZM209.711 442.885L192.3 450.614V456.857C192.342 471.812 198.331 486.136 208.947 496.67C219.045 506.491 232.572 511.99 246.658 512.001C296.705 511.279 337.283 465.712 358.58 423.288C371.627 397.032 379.629 368.561 382.17 339.352C366.599 352.092 349.902 364.832 332.08 377.572C293.399 403.133 252.401 425 209.626 442.886L209.711 442.885ZM510.802 62.827C507.978 155.256 441.432 246.921 307.343 343.109C270.853 366.763 232.358 387.169 192.3 404.092V392.138C192.102 351.176 158.945 318.018 117.983 317.821H106.029C122.991 277.762 143.432 239.267 167.118 202.778C263.071 69.006 354.587 2.375 446.868 -0.639999C492.859 -0.639999 510.802 18.088 510.802 62.827ZM383.401 179.802C383.401 150.485 359.635 126.718 330.317 126.718C300.999 126.718 277.233 150.484 277.233 179.802C277.233 209.119 300.999 232.886 330.317 232.886C359.635 232.886 383.401 209.119 383.401 179.802Z" fill="white"/>
</g>
<defs>
<clipPath id="clip0_3_10">
<rect width="512" height="512" fill="white"/>
</clipPath>
</defs>
</svg>
