<svg width="512" height="512" viewBox="0 0 512 512" fill="none" xmlns="http://www.w3.org/2000/svg">
<g clip-path="url(#clip0_1_2)">
<path d="M341.333 128C346.991 128 352.418 130.248 356.418 134.248C360.419 138.249 362.667 143.675 362.667 149.333C362.667 154.991 360.419 160.418 356.418 164.418C352.418 168.419 346.991 170.667 341.333 170.667H170.667C165.009 170.667 159.582 168.419 155.582 164.418C151.581 160.418 149.333 154.991 149.333 149.333C149.333 143.675 151.581 138.249 155.582 134.248C159.582 130.248 165.009 128 170.667 128H341.333ZM505.749 505.749C501.749 509.749 496.324 511.995 490.667 511.995C485.01 511.995 479.585 509.749 475.584 505.749L424.235 454.4C409.028 464.106 391.374 469.285 373.333 469.333C354.346 469.333 335.786 463.703 319.999 453.154C304.211 442.606 291.907 427.613 284.641 410.071C277.375 392.529 275.474 373.227 279.178 354.605C282.882 335.982 292.025 318.877 305.451 305.451C318.877 292.025 335.982 282.882 354.605 279.178C373.227 275.474 392.529 277.375 410.071 284.641C427.613 291.907 442.606 304.211 453.154 319.999C463.703 335.786 469.333 354.346 469.333 373.333C469.285 391.374 464.106 409.028 454.4 424.235L505.749 475.584C509.749 479.585 511.995 485.01 511.995 490.667C511.995 496.324 509.749 501.749 505.749 505.749ZM373.333 426.667C383.882 426.667 394.193 423.539 402.964 417.678C411.734 411.818 418.57 403.489 422.607 393.743C426.644 383.998 427.7 373.274 425.642 362.929C423.584 352.583 418.504 343.08 411.046 335.621C403.587 328.162 394.084 323.083 383.738 321.025C373.393 318.967 362.669 320.023 352.924 324.06C343.178 328.096 334.849 334.932 328.988 343.703C323.128 352.474 320 362.785 320 373.333C320 387.478 325.619 401.044 335.621 411.046C345.623 421.048 359.188 426.667 373.333 426.667ZM277.333 469.333H149.333C132.359 469.333 116.081 462.591 104.078 450.588C92.0762 438.586 85.3333 422.307 85.3333 405.333V106.667C85.3333 89.6928 92.0762 73.4142 104.078 61.4118C116.081 49.4095 132.359 42.6667 149.333 42.6667H405.333C410.991 42.6667 416.418 44.9143 420.418 48.9151C424.419 52.9158 426.667 58.342 426.667 64V234.667C426.667 240.325 428.914 245.751 432.915 249.752C436.916 253.752 442.342 256 448 256C453.658 256 459.084 253.752 463.085 249.752C467.086 245.751 469.333 240.325 469.333 234.667V64C469.333 47.0261 462.591 30.7475 450.588 18.7452C438.586 6.74284 422.307 0 405.333 0L149.333 0C121.054 0.0338743 93.9426 11.2828 73.946 31.2794C53.9495 51.2759 42.7005 78.3873 42.6667 106.667V405.333C42.7005 433.613 53.9495 460.724 73.946 480.721C93.9426 500.717 121.054 511.966 149.333 512H277.333C282.991 512 288.417 509.752 292.418 505.752C296.419 501.751 298.667 496.325 298.667 490.667C298.667 485.009 296.419 479.582 292.418 475.582C288.417 471.581 282.991 469.333 277.333 469.333Z" fill="white"/>
</g>
<defs>
<clipPath id="clip0_1_2">
<rect width="512" height="512" fill="white"/>
</clipPath>
</defs>
</svg>
