<svg width="512" height="512" viewBox="0 0 512 512" fill="none" xmlns="http://www.w3.org/2000/svg">
<g clip-path="url(#clip0_4_19)">
<path d="M256 0C205.368 0 155.873 15.0141 113.774 43.1438C71.6751 71.2734 38.863 111.255 19.487 158.033C0.110921 204.811 -4.95873 256.284 4.91908 305.943C14.7969 355.602 39.1785 401.217 74.9808 437.019C110.783 472.822 156.398 497.203 206.057 507.081C255.716 516.959 307.189 511.889 353.967 492.513C400.745 473.137 440.727 440.325 468.856 398.226C496.986 356.127 512 306.632 512 256C511.927 188.127 484.932 123.055 436.938 75.0618C388.945 27.0683 323.873 0.0734097 256 0ZM469.333 256C469.359 297.807 457.023 338.689 433.877 373.504L408.448 348.053C406.454 346.054 405.334 343.346 405.333 340.523V320C405.333 303.026 398.591 286.748 386.588 274.745C374.586 262.743 358.307 256 341.333 256H277.333C271.676 256 266.249 253.752 262.249 249.752C258.248 245.751 256 240.325 256 234.667V224C256 221.171 257.124 218.458 259.124 216.458C261.125 214.457 263.838 213.333 266.667 213.333C280.812 213.333 294.377 207.714 304.379 197.712C314.381 187.71 320 174.145 320 160V138.667C320 135.838 321.124 133.125 323.124 131.124C325.125 129.124 327.838 128 330.667 128H360.085C374.217 127.96 387.762 122.349 397.781 112.384L405.824 104.341C425.945 124.14 441.924 147.747 452.828 173.785C463.731 199.823 469.342 227.771 469.333 256ZM43.7121 276.544L111.083 343.915C117.011 349.882 124.066 354.612 131.837 357.831C139.608 361.05 147.941 362.693 156.352 362.667H213.333C218.991 362.667 224.418 364.914 228.418 368.915C232.419 372.916 234.667 378.342 234.667 384V468.245C185.604 463.237 139.785 441.412 104.98 406.471C70.1753 371.53 48.5288 325.626 43.7121 276.544ZM277.333 468.245V384C277.333 367.026 270.591 350.748 258.588 338.745C246.586 326.743 230.307 320 213.333 320H156.352C153.547 320.002 150.769 319.451 148.178 318.379C145.586 317.306 143.231 315.733 141.248 313.749L46.1441 218.645C52.2492 183.94 66.8745 151.294 88.7079 123.635C110.541 95.9758 138.9 74.1698 171.238 60.1731C203.577 46.1764 238.885 40.427 273.994 43.4407C309.103 46.4543 342.914 58.1369 372.395 77.44L367.616 82.2187C365.608 84.199 362.906 85.3167 360.085 85.3333H330.667C316.522 85.3333 302.956 90.9524 292.954 100.954C282.952 110.956 277.333 124.522 277.333 138.667V160C277.333 162.829 276.21 165.542 274.209 167.542C272.209 169.543 269.496 170.667 266.667 170.667C252.522 170.667 238.956 176.286 228.954 186.288C218.952 196.29 213.333 209.855 213.333 224V234.667C213.333 251.641 220.076 267.919 232.079 279.922C244.081 291.924 260.36 298.667 277.333 298.667H341.333C346.991 298.667 352.418 300.914 356.418 304.915C360.419 308.916 362.667 314.342 362.667 320V340.523C362.707 354.654 368.318 368.199 378.283 378.219L406.805 406.741C372.063 441.604 326.307 463.34 277.333 468.245Z" fill="white"/>
</g>
<defs>
<clipPath id="clip0_4_19">
<rect width="512" height="512" fill="white"/>
</clipPath>
</defs>
</svg>
